<mxfile host="app.diagrams.net" modified="2023-10-04T02:18:32.274Z" agent="Mozilla/5.0 (Windows NT 10.0; Win64; x64) AppleWebKit/537.36 (KHTML, like Gecko) Chrome/117.0.0.0 Safari/537.36" etag="-kRRl89Xt-Tb7vl3pmcu" version="22.0.2" type="github">
  <diagram name="Page-1" id="ANxdUuvqjoWHxv6HLfIJ">
    <mxGraphModel dx="1730" dy="1546" grid="1" gridSize="10" guides="1" tooltips="1" connect="1" arrows="1" fold="1" page="1" pageScale="1" pageWidth="850" pageHeight="1100" math="0" shadow="0">
      <root>
        <mxCell id="0" />
        <mxCell id="1" parent="0" />
        <mxCell id="4OAcwoacGU41RVMX2a9Y-1" value="START" style="ellipse;whiteSpace=wrap;html=1;" vertex="1" parent="1">
          <mxGeometry x="332.5" y="-40" width="120" height="80" as="geometry" />
        </mxCell>
        <mxCell id="4OAcwoacGU41RVMX2a9Y-2" value="" style="endArrow=classic;html=1;rounded=0;" edge="1" parent="1">
          <mxGeometry width="50" height="50" relative="1" as="geometry">
            <mxPoint x="394.5" y="40" as="sourcePoint" />
            <mxPoint x="394.5" y="130" as="targetPoint" />
          </mxGeometry>
        </mxCell>
        <mxCell id="4OAcwoacGU41RVMX2a9Y-3" value="ANGKA" style="shape=parallelogram;perimeter=parallelogramPerimeter;whiteSpace=wrap;html=1;fixedSize=1;" vertex="1" parent="1">
          <mxGeometry x="335" y="130" width="120" height="60" as="geometry" />
        </mxCell>
        <mxCell id="4OAcwoacGU41RVMX2a9Y-4" value="" style="endArrow=classic;html=1;rounded=0;" edge="1" parent="1">
          <mxGeometry width="50" height="50" relative="1" as="geometry">
            <mxPoint x="394.5" y="190" as="sourcePoint" />
            <mxPoint x="394.5" y="240" as="targetPoint" />
          </mxGeometry>
        </mxCell>
        <mxCell id="4OAcwoacGU41RVMX2a9Y-24" style="edgeStyle=orthogonalEdgeStyle;rounded=0;orthogonalLoop=1;jettySize=auto;html=1;" edge="1" parent="1" source="4OAcwoacGU41RVMX2a9Y-5">
          <mxGeometry relative="1" as="geometry">
            <mxPoint x="395" y="350" as="targetPoint" />
          </mxGeometry>
        </mxCell>
        <mxCell id="4OAcwoacGU41RVMX2a9Y-5" value="TEBAKAN" style="shape=parallelogram;perimeter=parallelogramPerimeter;whiteSpace=wrap;html=1;fixedSize=1;" vertex="1" parent="1">
          <mxGeometry x="335" y="240" width="120" height="60" as="geometry" />
        </mxCell>
        <mxCell id="4OAcwoacGU41RVMX2a9Y-6" value="ANGKA=&lt;br&gt;TEBAKAN" style="rhombus;whiteSpace=wrap;html=1;" vertex="1" parent="1">
          <mxGeometry x="330" y="460" width="120" height="100" as="geometry" />
        </mxCell>
        <mxCell id="4OAcwoacGU41RVMX2a9Y-28" style="edgeStyle=orthogonalEdgeStyle;rounded=0;orthogonalLoop=1;jettySize=auto;html=1;" edge="1" parent="1" source="4OAcwoacGU41RVMX2a9Y-7" target="4OAcwoacGU41RVMX2a9Y-10">
          <mxGeometry relative="1" as="geometry" />
        </mxCell>
        <mxCell id="4OAcwoacGU41RVMX2a9Y-32" value="YES" style="edgeLabel;html=1;align=center;verticalAlign=middle;resizable=0;points=[];" vertex="1" connectable="0" parent="4OAcwoacGU41RVMX2a9Y-28">
          <mxGeometry x="0.0815" relative="1" as="geometry">
            <mxPoint as="offset" />
          </mxGeometry>
        </mxCell>
        <mxCell id="4OAcwoacGU41RVMX2a9Y-33" style="edgeStyle=orthogonalEdgeStyle;rounded=0;orthogonalLoop=1;jettySize=auto;html=1;entryX=0.5;entryY=1;entryDx=0;entryDy=0;" edge="1" parent="1" source="4OAcwoacGU41RVMX2a9Y-7" target="4OAcwoacGU41RVMX2a9Y-9">
          <mxGeometry relative="1" as="geometry">
            <mxPoint x="260" y="540" as="targetPoint" />
          </mxGeometry>
        </mxCell>
        <mxCell id="4OAcwoacGU41RVMX2a9Y-7" value="ANGKA&amp;gt;TEBAKAN" style="rhombus;whiteSpace=wrap;html=1;" vertex="1" parent="1">
          <mxGeometry x="327.5" y="780" width="125" height="120" as="geometry" />
        </mxCell>
        <mxCell id="4OAcwoacGU41RVMX2a9Y-27" style="edgeStyle=orthogonalEdgeStyle;rounded=0;orthogonalLoop=1;jettySize=auto;html=1;" edge="1" parent="1" source="4OAcwoacGU41RVMX2a9Y-8" target="4OAcwoacGU41RVMX2a9Y-11">
          <mxGeometry relative="1" as="geometry" />
        </mxCell>
        <mxCell id="4OAcwoacGU41RVMX2a9Y-30" value="YES" style="edgeLabel;html=1;align=center;verticalAlign=middle;resizable=0;points=[];" vertex="1" connectable="0" parent="4OAcwoacGU41RVMX2a9Y-27">
          <mxGeometry x="-0.2" relative="1" as="geometry">
            <mxPoint as="offset" />
          </mxGeometry>
        </mxCell>
        <mxCell id="4OAcwoacGU41RVMX2a9Y-8" value="ANGKA&amp;lt;TEBAKAN" style="rhombus;whiteSpace=wrap;html=1;" vertex="1" parent="1">
          <mxGeometry x="335" y="595" width="115" height="110" as="geometry" />
        </mxCell>
        <mxCell id="4OAcwoacGU41RVMX2a9Y-35" style="edgeStyle=orthogonalEdgeStyle;rounded=0;orthogonalLoop=1;jettySize=auto;html=1;entryX=0.5;entryY=0;entryDx=0;entryDy=0;" edge="1" parent="1" source="4OAcwoacGU41RVMX2a9Y-9" target="4OAcwoacGU41RVMX2a9Y-14">
          <mxGeometry relative="1" as="geometry" />
        </mxCell>
        <mxCell id="4OAcwoacGU41RVMX2a9Y-9" value="BENAR" style="shape=parallelogram;perimeter=parallelogramPerimeter;whiteSpace=wrap;html=1;fixedSize=1;" vertex="1" parent="1">
          <mxGeometry x="120" y="470" width="120" height="60" as="geometry" />
        </mxCell>
        <mxCell id="4OAcwoacGU41RVMX2a9Y-44" style="edgeStyle=orthogonalEdgeStyle;rounded=0;orthogonalLoop=1;jettySize=auto;html=1;entryX=1;entryY=0.25;entryDx=0;entryDy=0;" edge="1" parent="1" source="4OAcwoacGU41RVMX2a9Y-10" target="4OAcwoacGU41RVMX2a9Y-22">
          <mxGeometry relative="1" as="geometry">
            <mxPoint x="670" y="340" as="targetPoint" />
            <mxPoint x="720" y="830" as="sourcePoint" />
            <Array as="points">
              <mxPoint x="671" y="830" />
              <mxPoint x="671" y="365" />
            </Array>
          </mxGeometry>
        </mxCell>
        <mxCell id="4OAcwoacGU41RVMX2a9Y-10" value="ANGKA SAYA&amp;nbsp;&lt;br&gt;LEBIH BESAR" style="shape=parallelogram;perimeter=parallelogramPerimeter;whiteSpace=wrap;html=1;fixedSize=1;" vertex="1" parent="1">
          <mxGeometry x="510" y="810" width="120" height="60" as="geometry" />
        </mxCell>
        <mxCell id="4OAcwoacGU41RVMX2a9Y-42" style="edgeStyle=orthogonalEdgeStyle;rounded=0;orthogonalLoop=1;jettySize=auto;html=1;" edge="1" parent="1" source="4OAcwoacGU41RVMX2a9Y-11">
          <mxGeometry relative="1" as="geometry">
            <mxPoint x="450" y="376" as="targetPoint" />
            <Array as="points">
              <mxPoint x="600" y="570" />
              <mxPoint x="461" y="570" />
            </Array>
          </mxGeometry>
        </mxCell>
        <mxCell id="4OAcwoacGU41RVMX2a9Y-11" value="ANGKA SAYA&amp;nbsp;&lt;br&gt;LEBIH KECIL" style="shape=parallelogram;perimeter=parallelogramPerimeter;whiteSpace=wrap;html=1;fixedSize=1;" vertex="1" parent="1">
          <mxGeometry x="540" y="620" width="120" height="60" as="geometry" />
        </mxCell>
        <mxCell id="4OAcwoacGU41RVMX2a9Y-14" value="END" style="ellipse;whiteSpace=wrap;html=1;" vertex="1" parent="1">
          <mxGeometry x="-10" y="600" width="120" height="80" as="geometry" />
        </mxCell>
        <mxCell id="4OAcwoacGU41RVMX2a9Y-19" value="" style="endArrow=classic;html=1;rounded=0;exitX=0;exitY=0.5;exitDx=0;exitDy=0;" edge="1" parent="1" source="4OAcwoacGU41RVMX2a9Y-6" target="4OAcwoacGU41RVMX2a9Y-9">
          <mxGeometry width="50" height="50" relative="1" as="geometry">
            <mxPoint x="260" y="500" as="sourcePoint" />
            <mxPoint x="310" y="450" as="targetPoint" />
            <Array as="points" />
          </mxGeometry>
        </mxCell>
        <mxCell id="4OAcwoacGU41RVMX2a9Y-45" value="YES" style="edgeLabel;html=1;align=center;verticalAlign=middle;resizable=0;points=[];" vertex="1" connectable="0" parent="4OAcwoacGU41RVMX2a9Y-19">
          <mxGeometry x="-0.0125" y="1" relative="1" as="geometry">
            <mxPoint as="offset" />
          </mxGeometry>
        </mxCell>
        <mxCell id="4OAcwoacGU41RVMX2a9Y-20" value="" style="endArrow=classic;html=1;rounded=0;entryX=0.5;entryY=0;entryDx=0;entryDy=0;exitX=0.5;exitY=1;exitDx=0;exitDy=0;" edge="1" parent="1" source="4OAcwoacGU41RVMX2a9Y-6" target="4OAcwoacGU41RVMX2a9Y-8">
          <mxGeometry width="50" height="50" relative="1" as="geometry">
            <mxPoint x="390" y="590" as="sourcePoint" />
            <mxPoint x="440" y="540" as="targetPoint" />
          </mxGeometry>
        </mxCell>
        <mxCell id="4OAcwoacGU41RVMX2a9Y-29" value="NO" style="edgeLabel;html=1;align=center;verticalAlign=middle;resizable=0;points=[];" vertex="1" connectable="0" parent="4OAcwoacGU41RVMX2a9Y-20">
          <mxGeometry x="-0.0904" y="-1" relative="1" as="geometry">
            <mxPoint as="offset" />
          </mxGeometry>
        </mxCell>
        <mxCell id="4OAcwoacGU41RVMX2a9Y-21" value="" style="endArrow=classic;html=1;rounded=0;entryX=0.5;entryY=0;entryDx=0;entryDy=0;exitX=0.5;exitY=1;exitDx=0;exitDy=0;" edge="1" parent="1" source="4OAcwoacGU41RVMX2a9Y-8" target="4OAcwoacGU41RVMX2a9Y-7">
          <mxGeometry width="50" height="50" relative="1" as="geometry">
            <mxPoint x="390" y="710" as="sourcePoint" />
            <mxPoint x="430" y="690" as="targetPoint" />
            <Array as="points" />
          </mxGeometry>
        </mxCell>
        <mxCell id="4OAcwoacGU41RVMX2a9Y-31" value="NO" style="edgeLabel;html=1;align=center;verticalAlign=middle;resizable=0;points=[];" vertex="1" connectable="0" parent="4OAcwoacGU41RVMX2a9Y-21">
          <mxGeometry x="-0.1454" y="-1" relative="1" as="geometry">
            <mxPoint as="offset" />
          </mxGeometry>
        </mxCell>
        <mxCell id="4OAcwoacGU41RVMX2a9Y-22" value="PROSES PENEBAKAN ANGKA" style="rounded=0;whiteSpace=wrap;html=1;" vertex="1" parent="1">
          <mxGeometry x="335" y="350" width="120" height="60" as="geometry" />
        </mxCell>
        <mxCell id="4OAcwoacGU41RVMX2a9Y-25" style="edgeStyle=orthogonalEdgeStyle;rounded=0;orthogonalLoop=1;jettySize=auto;html=1;entryX=0.542;entryY=0.08;entryDx=0;entryDy=0;entryPerimeter=0;" edge="1" parent="1" source="4OAcwoacGU41RVMX2a9Y-22" target="4OAcwoacGU41RVMX2a9Y-6">
          <mxGeometry relative="1" as="geometry" />
        </mxCell>
      </root>
    </mxGraphModel>
  </diagram>
</mxfile>
